<?xml version="1.0" encoding="UTF-8"?>
<svg width="946px" height="417px" viewBox="0 0 946 417" version="1.1" xmlns="http://www.w3.org/2000/svg" xmlns:xlink="http://www.w3.org/1999/xlink">
    <!-- Generator: Sketch 52.5 (67469) - http://www.bohemiancoding.com/sketch -->
    <title>themes</title>
    <desc>Created with Sketch.</desc>
    <g id="themes" stroke="none" stroke-width="1" fill="none" fill-rule="evenodd">
        <g id="biocybernetics-2" transform="translate(205.000000, 50.000000)" fill="#66666E">
            <path d="M6.112,18.288 C4.984,18.288 3.592,17.688 2.488,16.704 L2.416,16.704 L2.248,18 L0.664,18 L0.664,0.912 L2.632,0.912 L2.632,5.568 L2.56,7.824 L2.632,7.824 C3.688,6.744 5.176,6.048 6.544,6.048 C9.688,6.048 11.392,8.376 11.392,11.976 C11.392,15.96 8.896,18.288 6.112,18.288 Z M5.8,16.632 C7.84,16.632 9.352,14.88 9.352,12 C9.352,9.432 8.392,7.704 6.064,7.704 C5.032,7.704 3.832,8.256 2.632,9.456 L2.632,15.264 C3.736,16.248 4.96,16.632 5.8,16.632 Z M22.24,18 L22.24,7.944 L16.816,7.944 L16.816,6.336 L24.208,6.336 L24.208,18 L22.24,18 Z M23.008,3.888 C22.12,3.888 21.424,3.288 21.424,2.352 C21.424,1.44 22.12,0.816 23.008,0.816 C23.896,0.816 24.592,1.44 24.592,2.352 C24.592,3.288 23.896,3.888 23.008,3.888 Z M38.08,18.288 C35.008,18.288 32.32,16.056 32.32,12.192 C32.32,8.28 35.008,6.048 38.08,6.048 C41.152,6.048 43.84,8.28 43.84,12.192 C43.84,16.056 41.152,18.288 38.08,18.288 Z M38.08,16.656 C40.312,16.656 41.8,14.856 41.8,12.192 C41.8,9.504 40.312,7.68 38.08,7.68 C35.848,7.68 34.36,9.504 34.36,12.192 C34.36,14.856 35.848,16.656 38.08,16.656 Z M55.408,18.288 C51.76,18.288 49.024,16.056 49.024,12.192 C49.024,8.28 52,6.048 55.528,6.048 C57.424,6.048 58.816,6.816 59.776,7.752 L58.792,9.024 C57.832,8.184 56.824,7.68 55.6,7.68 C52.912,7.68 51.064,9.504 51.064,12.192 C51.064,14.856 52.864,16.656 55.552,16.656 C56.992,16.656 58.192,16.008 59.152,15.192 L60.04,16.464 C58.744,17.616 57.136,18.288 55.408,18.288 Z M66.472,23.016 C65.92,23.016 65.344,22.92 64.936,22.776 L65.344,21.216 C65.656,21.312 66.04,21.384 66.4,21.384 C68.032,21.384 69.016,20.328 69.592,18.888 L69.952,18.024 L64.504,6.336 L66.496,6.336 L69.352,12.792 C69.808,13.824 70.312,15.048 70.792,16.176 L70.888,16.176 C71.296,15.072 71.752,13.848 72.136,12.792 L74.68,6.336 L76.552,6.336 L71.416,18.96 C70.552,21.264 69.112,23.016 66.472,23.016 Z M87.232,18.288 C86.104,18.288 84.712,17.688 83.608,16.704 L83.536,16.704 L83.368,18 L81.784,18 L81.784,0.912 L83.752,0.912 L83.752,5.568 L83.68,7.824 L83.752,7.824 C84.808,6.744 86.296,6.048 87.664,6.048 C90.808,6.048 92.512,8.376 92.512,11.976 C92.512,15.96 90.016,18.288 87.232,18.288 Z M86.92,16.632 C88.96,16.632 90.472,14.88 90.472,12 C90.472,9.432 89.512,7.704 87.184,7.704 C86.152,7.704 84.952,8.256 83.752,9.456 L83.752,15.264 C84.856,16.248 86.08,16.632 86.92,16.632 Z M103.696,18.288 C100.192,18.288 97.408,16.032 97.408,12.144 C97.408,8.352 100.24,6.048 103.36,6.048 C106.72,6.048 108.688,8.232 108.688,11.52 C108.688,11.976 108.64,12.408 108.592,12.72 L99.4,12.72 C99.64,15.36 101.512,16.704 103.936,16.704 C105.328,16.704 106.432,16.272 107.488,15.6 L108.208,16.896 C107.056,17.664 105.568,18.288 103.696,18.288 Z M103.408,7.608 C101.488,7.608 99.808,8.88 99.448,11.184 L106.888,11.184 C106.72,8.784 105.4,7.608 103.408,7.608 Z M115.504,18 L115.504,6.336 L117.136,6.336 L117.304,9.096 L117.376,9.096 C118.6,7.224 120.424,6.048 122.584,6.048 C123.448,6.048 124.168,6.168 124.888,6.528 L124.432,8.232 C123.616,7.944 123.184,7.824 122.272,7.824 C120.52,7.824 118.864,8.736 117.472,11.16 L117.472,18 L115.504,18 Z M130.456,18 L130.456,6.336 L132.088,6.336 L132.256,8.328 L132.352,8.328 C133.576,7.032 134.92,6.048 136.744,6.048 C139.504,6.048 140.776,7.68 140.776,10.752 L140.776,18 L138.808,18 L138.808,11.016 C138.808,8.808 138.04,7.752 136.12,7.752 C134.728,7.752 133.792,8.448 132.424,9.864 L132.424,18 L130.456,18 Z M152.368,18.288 C148.864,18.288 146.08,16.032 146.08,12.144 C146.08,8.352 148.912,6.048 152.032,6.048 C155.392,6.048 157.36,8.232 157.36,11.52 C157.36,11.976 157.312,12.408 157.264,12.72 L148.072,12.72 C148.312,15.36 150.184,16.704 152.608,16.704 C154,16.704 155.104,16.272 156.16,15.6 L156.88,16.896 C155.728,17.664 154.24,18.288 152.368,18.288 Z M152.08,7.608 C150.16,7.608 148.48,8.88 148.12,11.184 L155.56,11.184 C155.392,8.784 154.072,7.608 152.08,7.608 Z M170.128,18.288 C166.72,18.288 165.616,16.344 165.616,13.464 L165.616,7.944 L162.328,7.944 L162.328,6.456 L165.688,6.336 L165.952,2.592 L167.584,2.592 L167.584,6.336 L173.32,6.336 L173.32,7.944 L167.584,7.944 L167.584,13.488 C167.584,15.576 168.28,16.68 170.536,16.68 C171.64,16.68 172.504,16.464 173.344,16.152 L173.776,17.592 C172.72,17.976 171.592,18.288 170.128,18.288 Z M184.48,18 L184.48,7.944 L179.056,7.944 L179.056,6.336 L186.448,6.336 L186.448,18 L184.48,18 Z M185.248,3.888 C184.36,3.888 183.664,3.288 183.664,2.352 C183.664,1.44 184.36,0.816 185.248,0.816 C186.136,0.816 186.832,1.44 186.832,2.352 C186.832,3.288 186.136,3.888 185.248,3.888 Z M201.424,18.288 C197.776,18.288 195.04,16.056 195.04,12.192 C195.04,8.28 198.016,6.048 201.544,6.048 C203.44,6.048 204.832,6.816 205.792,7.752 L204.808,9.024 C203.848,8.184 202.84,7.68 201.616,7.68 C198.928,7.68 197.08,9.504 197.08,12.192 C197.08,14.856 198.88,16.656 201.568,16.656 C203.008,16.656 204.208,16.008 205.168,15.192 L206.056,16.464 C204.76,17.616 203.152,18.288 201.424,18.288 Z M216.784,18.288 C214.504,18.288 212.464,17.448 211.048,16.464 L211.96,15.168 C213.304,16.128 214.864,16.752 217.024,16.752 C218.992,16.752 219.976,15.912 219.976,14.928 C219.976,14.04 219.496,13.416 216.328,12.768 C213.304,12.144 211.768,11.112 211.768,9.36 C211.768,7.488 213.424,6.048 216.616,6.048 C218.392,6.048 220.168,6.744 221.32,7.536 L220.36,8.808 C219.28,8.064 217.936,7.584 216.448,7.584 C214.456,7.584 213.76,8.376 213.76,9.264 C213.76,10.272 214.768,10.704 217.144,11.208 C221.032,12.048 221.968,13.032 221.968,14.808 C221.968,16.704 220.12,18.288 216.784,18.288 Z" id="biocybernetics"></path>
        </g>
        <g id="mycotechnology-2" transform="translate(361.000000, 187.000000)" fill="#66666E">
            <path d="M0.536,17 L0.536,5.216 L2.672,5.216 L2.888,6.704 L2.96,6.704 C3.464,5.696 4.208,4.928 5.576,4.928 C6.656,4.928 7.4,5.6 7.712,6.896 C8.264,5.744 9.032,4.928 10.4,4.928 C12.056,4.928 13.016,6.296 13.016,8.648 L13.016,17 L10.352,17 L10.352,8.84 C10.352,7.808 10.064,7.28 9.416,7.28 C8.768,7.28 8.408,7.784 7.928,8.768 L7.928,17 L5.624,17 L5.624,8.84 C5.624,7.808 5.36,7.28 4.688,7.28 C4.064,7.28 3.656,7.784 3.224,8.768 L3.224,17 L0.536,17 Z M18.944,21.848 C18.32,21.848 17.72,21.752 17.264,21.608 L17.792,19.448 C18.104,19.544 18.44,19.616 18.776,19.616 C20.264,19.616 21.128,18.776 21.608,17.6 L21.896,16.856 L16.616,5.216 L19.376,5.216 L21.8,11 C22.232,12.056 22.664,13.28 23.096,14.456 L23.192,14.456 C23.552,13.328 23.984,12.104 24.368,11 L26.504,5.216 L29.12,5.216 L24.2,17.528 C23.192,20.192 21.776,21.848 18.944,21.848 Z M40.136,17.288 C36.44,17.288 33.632,15.032 33.632,11.12 C33.632,7.184 36.728,4.928 40.328,4.928 C42.224,4.928 43.712,5.648 44.696,6.584 L43.376,8.312 C42.464,7.568 41.528,7.184 40.472,7.184 C38.12,7.184 36.488,8.744 36.488,11.12 C36.488,13.472 38.072,15.032 40.4,15.032 C41.744,15.032 42.848,14.432 43.76,13.736 L44.912,15.512 C43.544,16.688 41.816,17.288 40.136,17.288 Z M55.304,17.288 C52.208,17.288 49.376,15.032 49.376,11.12 C49.376,7.184 52.208,4.928 55.304,4.928 C58.4,4.928 61.232,7.184 61.232,11.12 C61.232,15.032 58.4,17.288 55.304,17.288 Z M55.304,15.032 C57.224,15.032 58.376,13.472 58.376,11.12 C58.376,8.744 57.224,7.184 55.304,7.184 C53.384,7.184 52.232,8.744 52.232,11.12 C52.232,13.472 53.384,15.032 55.304,15.032 Z M73.712,17.288 C70.112,17.288 68.888,15.272 68.888,12.248 L68.888,7.4 L65.744,7.4 L65.744,5.336 L69.008,5.216 L69.368,1.52 L71.648,1.52 L71.648,5.216 L77.024,5.216 L77.024,7.4 L71.648,7.4 L71.648,12.248 C71.648,14.192 72.368,15.08 74.384,15.08 C75.368,15.08 76.184,14.888 76.952,14.6 L77.48,16.616 C76.424,16.976 75.248,17.288 73.712,17.288 Z M88.472,17.288 C84.872,17.288 82.016,15.008 82.016,11.096 C82.016,7.256 84.944,4.928 88.112,4.928 C91.616,4.928 93.56,7.256 93.56,10.52 C93.56,11.072 93.488,11.6 93.44,11.912 L84.776,11.912 C85.088,14.096 86.648,15.152 88.832,15.152 C90.08,15.152 91.088,14.768 92.144,14.168 L93.08,15.896 C91.832,16.712 90.2,17.288 88.472,17.288 Z M88.184,7.064 C86.552,7.064 85.208,8.048 84.848,9.944 L91.112,9.944 C90.92,8.024 89.864,7.064 88.184,7.064 Z M105.032,17.288 C101.336,17.288 98.528,15.032 98.528,11.12 C98.528,7.184 101.624,4.928 105.224,4.928 C107.12,4.928 108.608,5.648 109.592,6.584 L108.272,8.312 C107.36,7.568 106.424,7.184 105.368,7.184 C103.016,7.184 101.384,8.744 101.384,11.12 C101.384,13.472 102.968,15.032 105.296,15.032 C106.64,15.032 107.744,14.432 108.656,13.736 L109.808,15.512 C108.44,16.688 106.712,17.288 105.032,17.288 Z M114.968,17 L114.968,0.056 L117.752,0.056 L117.752,4.424 L117.584,6.944 L117.656,6.944 C118.688,5.864 120.008,4.928 121.808,4.928 C124.52,4.928 125.768,6.656 125.768,9.704 L125.768,17 L122.984,17 L122.984,10.064 C122.984,8.168 122.384,7.304 120.776,7.304 C119.624,7.304 118.832,7.856 117.752,8.96 L117.752,17 L114.968,17 Z M131.192,17 L131.192,5.216 L133.472,5.216 L133.688,6.992 L133.784,6.992 C134.888,5.864 136.232,4.928 138.032,4.928 C140.744,4.928 141.992,6.656 141.992,9.704 L141.992,17 L139.208,17 L139.208,10.064 C139.208,8.168 138.608,7.304 137,7.304 C135.848,7.304 135.056,7.856 133.976,8.96 L133.976,17 L131.192,17 Z M152.648,17.288 C149.552,17.288 146.72,15.032 146.72,11.12 C146.72,7.184 149.552,4.928 152.648,4.928 C155.744,4.928 158.576,7.184 158.576,11.12 C158.576,15.032 155.744,17.288 152.648,17.288 Z M152.648,15.032 C154.568,15.032 155.72,13.472 155.72,11.12 C155.72,8.744 154.568,7.184 152.648,7.184 C150.728,7.184 149.576,8.744 149.576,11.12 C149.576,13.472 150.728,15.032 152.648,15.032 Z M171.296,17.288 C168.56,17.288 167.096,15.608 167.096,12.704 L167.096,2.24 L163.16,2.24 L163.16,0.056 L169.856,0.056 L169.856,12.848 C169.856,14.432 170.792,15.032 171.968,15.032 C172.592,15.032 173.24,14.888 173.984,14.576 L174.632,16.616 C173.48,17.048 172.664,17.288 171.296,17.288 Z M185.096,17.288 C182,17.288 179.168,15.032 179.168,11.12 C179.168,7.184 182,4.928 185.096,4.928 C188.192,4.928 191.024,7.184 191.024,11.12 C191.024,15.032 188.192,17.288 185.096,17.288 Z M185.096,15.032 C187.016,15.032 188.168,13.472 188.168,11.12 C188.168,8.744 187.016,7.184 185.096,7.184 C183.176,7.184 182.024,8.744 182.024,11.12 C182.024,13.472 183.176,15.032 185.096,15.032 Z M200.984,22.208 C197.744,22.208 195.608,21.176 195.608,19.064 C195.608,18.128 196.256,17.264 197.48,16.592 L197.48,16.496 C196.856,16.112 196.28,15.512 196.28,14.528 C196.28,13.76 196.832,12.896 197.696,12.32 L197.696,12.224 C196.856,11.624 196.184,10.568 196.184,9.176 C196.184,6.464 198.44,4.928 201.032,4.928 C201.728,4.928 202.328,5.024 202.88,5.216 L207.704,5.216 L207.704,7.328 L204.992,7.328 C205.4,7.784 205.76,8.504 205.76,9.272 C205.76,11.888 203.672,13.28 201.032,13.28 C200.504,13.28 199.856,13.16 199.232,12.944 C198.752,13.232 198.512,13.568 198.512,14.048 C198.512,14.816 199.28,15.152 200.744,15.152 L203.144,15.152 C206.192,15.152 207.776,15.968 207.776,18.032 C207.776,20.36 205.136,22.208 200.984,22.208 Z M201.032,11.528 C202.256,11.528 203.264,10.664 203.264,9.176 C203.264,7.736 202.256,6.848 201.032,6.848 C199.808,6.848 198.8,7.736 198.8,9.176 C198.8,10.664 199.808,11.528 201.032,11.528 Z M201.32,20.384 C203.624,20.384 205.112,19.496 205.112,18.488 C205.112,17.576 204.32,17.336 202.736,17.336 L200.864,17.336 C200.096,17.336 199.544,17.288 199.064,17.168 C198.224,17.648 197.912,18.152 197.912,18.704 C197.912,19.76 199.136,20.384 201.32,20.384 Z M213.632,21.848 C213.008,21.848 212.408,21.752 211.952,21.608 L212.48,19.448 C212.792,19.544 213.128,19.616 213.464,19.616 C214.952,19.616 215.816,18.776 216.296,17.6 L216.584,16.856 L211.304,5.216 L214.064,5.216 L216.488,11 C216.92,12.056 217.352,13.28 217.784,14.456 L217.88,14.456 C218.24,13.328 218.672,12.104 219.056,11 L221.192,5.216 L223.808,5.216 L218.888,17.528 C217.88,20.192 216.464,21.848 213.632,21.848 Z" id="mycotechnology"></path>
        </g>
        <path d="M66.448,156.472 C65.32,156.472 63.928,155.872 62.824,154.888 L62.752,154.888 L62.584,156.184 L61,156.184 L61,139.096 L62.968,139.096 L62.968,143.752 L62.896,146.008 L62.968,146.008 C64.024,144.928 65.512,144.232 66.88,144.232 C70.024,144.232 71.728,146.56 71.728,150.16 C71.728,154.144 69.232,156.472 66.448,156.472 Z M66.136,154.816 C68.176,154.816 69.688,153.064 69.688,150.184 C69.688,147.616 68.728,145.888 66.4,145.888 C65.368,145.888 64.168,146.44 62.968,147.64 L62.968,153.448 C64.072,154.432 65.296,154.816 66.136,154.816 Z M82.576,156.184 L82.576,146.128 L77.152,146.128 L77.152,144.52 L84.544,144.52 L84.544,156.184 L82.576,156.184 Z M83.344,142.072 C82.456,142.072 81.76,141.472 81.76,140.536 C81.76,139.624 82.456,139 83.344,139 C84.232,139 84.928,139.624 84.928,140.536 C84.928,141.472 84.232,142.072 83.344,142.072 Z M98.416,156.472 C95.344,156.472 92.656,154.24 92.656,150.376 C92.656,146.464 95.344,144.232 98.416,144.232 C101.488,144.232 104.176,146.464 104.176,150.376 C104.176,154.24 101.488,156.472 98.416,156.472 Z M98.416,154.84 C100.648,154.84 102.136,153.04 102.136,150.376 C102.136,147.688 100.648,145.864 98.416,145.864 C96.184,145.864 94.696,147.688 94.696,150.376 C94.696,153.04 96.184,154.84 98.416,154.84 Z M113.344,156.472 C110.56,156.472 109.288,154.84 109.288,151.768 L109.288,144.52 L111.28,144.52 L111.28,151.504 C111.28,153.712 112.024,154.768 113.968,154.768 C115.312,154.768 116.296,154.12 117.592,152.608 L117.592,144.52 L119.56,144.52 L119.56,156.184 L117.952,156.184 L117.784,154.144 L117.688,154.144 C116.512,155.512 115.144,156.472 113.344,156.472 Z M127.168,156.184 L127.168,144.52 L128.8,144.52 L128.968,147.28 L129.04,147.28 C130.264,145.408 132.088,144.232 134.248,144.232 C135.112,144.232 135.832,144.352 136.552,144.712 L136.096,146.416 C135.28,146.128 134.848,146.008 133.936,146.008 C132.184,146.008 130.528,146.92 129.136,149.344 L129.136,156.184 L127.168,156.184 Z M147.568,156.472 C146.44,156.472 145.048,155.872 143.944,154.888 L143.872,154.888 L143.704,156.184 L142.12,156.184 L142.12,139.096 L144.088,139.096 L144.088,143.752 L144.016,146.008 L144.088,146.008 C145.144,144.928 146.632,144.232 148,144.232 C151.144,144.232 152.848,146.56 152.848,150.16 C152.848,154.144 150.352,156.472 147.568,156.472 Z M147.256,154.816 C149.296,154.816 150.808,153.064 150.808,150.184 C150.808,147.616 149.848,145.888 147.52,145.888 C146.488,145.888 145.288,146.44 144.088,147.64 L144.088,153.448 C145.192,154.432 146.416,154.816 147.256,154.816 Z M162.016,156.472 C159.832,156.472 158.056,155.248 158.056,153.16 C158.056,150.544 160.48,149.272 166.504,148.792 C166.456,147.208 165.664,145.864 163.408,145.864 C161.896,145.864 160.408,146.584 159.328,147.256 L158.56,145.912 C159.736,145.144 161.704,144.232 163.744,144.232 C166.936,144.232 168.472,146.128 168.472,149.032 L168.472,156.184 L166.864,156.184 L166.696,154.6 L166.624,154.6 C165.328,155.608 163.672,156.472 162.016,156.472 Z M162.544,154.888 C163.864,154.888 165.184,154.264 166.504,153.16 L166.504,150.088 C161.512,150.496 159.976,151.48 159.976,153.016 C159.976,154.336 161.2,154.888 162.544,154.888 Z M174.568,156.184 L174.568,144.52 L176.2,144.52 L176.368,146.512 L176.464,146.512 C177.688,145.216 179.032,144.232 180.856,144.232 C183.616,144.232 184.888,145.864 184.888,148.936 L184.888,156.184 L182.92,156.184 L182.92,149.2 C182.92,146.992 182.152,145.936 180.232,145.936 C178.84,145.936 177.904,146.632 176.536,148.048 L176.536,156.184 L174.568,156.184 Z M196.144,156.184 L196.144,146.128 L190.72,146.128 L190.72,144.52 L198.112,144.52 L198.112,156.184 L196.144,156.184 Z M196.912,142.072 C196.024,142.072 195.328,141.472 195.328,140.536 C195.328,139.624 196.024,139 196.912,139 C197.8,139 198.496,139.624 198.496,140.536 C198.496,141.472 197.8,142.072 196.912,142.072 Z M212.224,156.472 C209.944,156.472 207.904,155.632 206.488,154.648 L207.4,153.352 C208.744,154.312 210.304,154.936 212.464,154.936 C214.432,154.936 215.416,154.096 215.416,153.112 C215.416,152.224 214.936,151.6 211.768,150.952 C208.744,150.328 207.208,149.296 207.208,147.544 C207.208,145.672 208.864,144.232 212.056,144.232 C213.832,144.232 215.608,144.928 216.76,145.72 L215.8,146.992 C214.72,146.248 213.376,145.768 211.888,145.768 C209.896,145.768 209.2,146.56 209.2,147.448 C209.2,148.456 210.208,148.888 212.584,149.392 C216.472,150.232 217.408,151.216 217.408,152.992 C217.408,154.888 215.56,156.472 212.224,156.472 Z M222.4,156.184 L222.4,144.52 L223.984,144.52 L224.152,146.056 L224.2,146.056 C224.8,144.976 225.52,144.232 226.864,144.232 C228.016,144.232 228.736,144.904 229.072,146.248 C229.744,145 230.464,144.232 231.808,144.232 C233.44,144.232 234.4,145.504 234.4,147.832 L234.4,156.184 L232.432,156.184 L232.432,147.976 C232.432,146.632 232.048,145.936 231.184,145.936 C230.368,145.936 229.936,146.536 229.312,147.736 L229.312,156.184 L227.488,156.184 L227.488,147.976 C227.488,146.632 227.152,145.936 226.288,145.936 C225.472,145.936 224.944,146.536 224.368,147.736 L224.368,156.184 L222.4,156.184 Z" id="biourbanism" fill="#66666E"></path>
        <g id="plant-perception-2" transform="translate(613.000000, 329.000000)" fill="#66666E">
            <path d="M0.44,22.92 L0.44,6.336 L2.072,6.336 L2.24,7.824 L2.312,7.824 C3.392,6.792 4.904,6.048 6.344,6.048 C9.488,6.048 11.168,8.376 11.168,12 C11.168,15.96 8.672,18.288 5.864,18.288 C4.784,18.288 3.416,17.736 2.384,16.776 L2.312,16.776 L2.408,18.984 L2.408,22.92 L0.44,22.92 Z M5.528,16.632 C7.616,16.632 9.128,14.88 9.128,12 C9.128,9.432 8.168,7.704 5.84,7.704 C4.808,7.704 3.608,8.256 2.408,9.456 L2.408,15.264 C3.512,16.248 4.736,16.632 5.528,16.632 Z M24.2,18.288 C21.728,18.288 20.36,16.848 20.36,14.088 L20.36,2.52 L16.208,2.52 L16.208,0.912 L22.328,0.912 L22.328,14.232 C22.328,15.936 23.24,16.656 24.632,16.656 C25.304,16.656 26.024,16.488 26.816,16.128 L27.32,17.592 C26.24,18.048 25.472,18.288 24.2,18.288 Z M36.56,18.288 C34.376,18.288 32.6,17.064 32.6,14.976 C32.6,12.36 35.024,11.088 41.048,10.608 C41,9.024 40.208,7.68 37.952,7.68 C36.44,7.68 34.952,8.4 33.872,9.072 L33.104,7.728 C34.28,6.96 36.248,6.048 38.288,6.048 C41.48,6.048 43.016,7.944 43.016,10.848 L43.016,18 L41.408,18 L41.24,16.416 L41.168,16.416 C39.872,17.424 38.216,18.288 36.56,18.288 Z M37.088,16.704 C38.408,16.704 39.728,16.08 41.048,14.976 L41.048,11.904 C36.056,12.312 34.52,13.296 34.52,14.832 C34.52,16.152 35.744,16.704 37.088,16.704 Z M49.112,18 L49.112,6.336 L50.744,6.336 L50.912,8.328 L51.008,8.328 C52.232,7.032 53.576,6.048 55.4,6.048 C58.16,6.048 59.432,7.68 59.432,10.752 L59.432,18 L57.464,18 L57.464,11.016 C57.464,8.808 56.696,7.752 54.776,7.752 C53.384,7.752 52.448,8.448 51.08,9.864 L51.08,18 L49.112,18 Z M72.56,18.288 C69.152,18.288 68.048,16.344 68.048,13.464 L68.048,7.944 L64.76,7.944 L64.76,6.456 L68.12,6.336 L68.384,2.592 L70.016,2.592 L70.016,6.336 L75.752,6.336 L75.752,7.944 L70.016,7.944 L70.016,13.488 C70.016,15.576 70.712,16.68 72.968,16.68 C74.072,16.68 74.936,16.464 75.776,16.152 L76.208,17.592 C75.152,17.976 74.024,18.288 72.56,18.288 Z M97.784,22.92 L97.784,6.336 L99.416,6.336 L99.584,7.824 L99.656,7.824 C100.736,6.792 102.248,6.048 103.688,6.048 C106.832,6.048 108.512,8.376 108.512,12 C108.512,15.96 106.016,18.288 103.208,18.288 C102.128,18.288 100.76,17.736 99.728,16.776 L99.656,16.776 L99.752,18.984 L99.752,22.92 L97.784,22.92 Z M102.872,16.632 C104.96,16.632 106.472,14.88 106.472,12 C106.472,9.432 105.512,7.704 103.184,7.704 C102.152,7.704 100.952,8.256 99.752,9.456 L99.752,15.264 C100.856,16.248 102.08,16.632 102.872,16.632 Z M119.696,18.288 C116.192,18.288 113.408,16.032 113.408,12.144 C113.408,8.352 116.24,6.048 119.36,6.048 C122.72,6.048 124.688,8.232 124.688,11.52 C124.688,11.976 124.64,12.408 124.592,12.72 L115.4,12.72 C115.64,15.36 117.512,16.704 119.936,16.704 C121.328,16.704 122.432,16.272 123.488,15.6 L124.208,16.896 C123.056,17.664 121.568,18.288 119.696,18.288 Z M119.408,7.608 C117.488,7.608 115.808,8.88 115.448,11.184 L122.888,11.184 C122.72,8.784 121.4,7.608 119.408,7.608 Z M131.504,18 L131.504,6.336 L133.136,6.336 L133.304,9.096 L133.376,9.096 C134.6,7.224 136.424,6.048 138.584,6.048 C139.448,6.048 140.168,6.168 140.888,6.528 L140.432,8.232 C139.616,7.944 139.184,7.824 138.272,7.824 C136.52,7.824 134.864,8.736 133.472,11.16 L133.472,18 L131.504,18 Z M152.528,18.288 C148.88,18.288 146.144,16.056 146.144,12.192 C146.144,8.28 149.12,6.048 152.648,6.048 C154.544,6.048 155.936,6.816 156.896,7.752 L155.912,9.024 C154.952,8.184 153.944,7.68 152.72,7.68 C150.032,7.68 148.184,9.504 148.184,12.192 C148.184,14.856 149.984,16.656 152.672,16.656 C154.112,16.656 155.312,16.008 156.272,15.192 L157.16,16.464 C155.864,17.616 154.256,18.288 152.528,18.288 Z M168.368,18.288 C164.864,18.288 162.08,16.032 162.08,12.144 C162.08,8.352 164.912,6.048 168.032,6.048 C171.392,6.048 173.36,8.232 173.36,11.52 C173.36,11.976 173.312,12.408 173.264,12.72 L164.072,12.72 C164.312,15.36 166.184,16.704 168.608,16.704 C170,16.704 171.104,16.272 172.16,15.6 L172.88,16.896 C171.728,17.664 170.24,18.288 168.368,18.288 Z M168.08,7.608 C166.16,7.608 164.48,8.88 164.12,11.184 L171.56,11.184 C171.392,8.784 170.072,7.608 168.08,7.608 Z M178.904,22.92 L178.904,6.336 L180.536,6.336 L180.704,7.824 L180.776,7.824 C181.856,6.792 183.368,6.048 184.808,6.048 C187.952,6.048 189.632,8.376 189.632,12 C189.632,15.96 187.136,18.288 184.328,18.288 C183.248,18.288 181.88,17.736 180.848,16.776 L180.776,16.776 L180.872,18.984 L180.872,22.92 L178.904,22.92 Z M183.992,16.632 C186.08,16.632 187.592,14.88 187.592,12 C187.592,9.432 186.632,7.704 184.304,7.704 C183.272,7.704 182.072,8.256 180.872,9.456 L180.872,15.264 C181.976,16.248 183.2,16.632 183.992,16.632 Z M202.352,18.288 C198.944,18.288 197.84,16.344 197.84,13.464 L197.84,7.944 L194.552,7.944 L194.552,6.456 L197.912,6.336 L198.176,2.592 L199.808,2.592 L199.808,6.336 L205.544,6.336 L205.544,7.944 L199.808,7.944 L199.808,13.488 C199.808,15.576 200.504,16.68 202.76,16.68 C203.864,16.68 204.728,16.464 205.568,16.152 L206,17.592 C204.944,17.976 203.816,18.288 202.352,18.288 Z M216.704,18 L216.704,7.944 L211.28,7.944 L211.28,6.336 L218.672,6.336 L218.672,18 L216.704,18 Z M217.472,3.888 C216.584,3.888 215.888,3.288 215.888,2.352 C215.888,1.44 216.584,0.816 217.472,0.816 C218.36,0.816 219.056,1.44 219.056,2.352 C219.056,3.288 218.36,3.888 217.472,3.888 Z M232.544,18.288 C229.472,18.288 226.784,16.056 226.784,12.192 C226.784,8.28 229.472,6.048 232.544,6.048 C235.616,6.048 238.304,8.28 238.304,12.192 C238.304,16.056 235.616,18.288 232.544,18.288 Z M232.544,16.656 C234.776,16.656 236.264,14.856 236.264,12.192 C236.264,9.504 234.776,7.68 232.544,7.68 C230.312,7.68 228.824,9.504 228.824,12.192 C228.824,14.856 230.312,16.656 232.544,16.656 Z M243.8,18 L243.8,6.336 L245.432,6.336 L245.6,8.328 L245.696,8.328 C246.92,7.032 248.264,6.048 250.088,6.048 C252.848,6.048 254.12,7.68 254.12,10.752 L254.12,18 L252.152,18 L252.152,11.016 C252.152,8.808 251.384,7.752 249.464,7.752 C248.072,7.752 247.136,8.448 245.768,9.864 L245.768,18 L243.8,18 Z" id="plant-perception"></path>
        </g>
        <g id="astromycology-2" transform="translate(61.000000, 263.000000)" fill="#66666E">
            <path d="M4.948,18.288 C2.764,18.288 0.988,17.064 0.988,14.976 C0.988,12.36 3.412,11.088 9.436,10.608 C9.388,9.024 8.596,7.68 6.34,7.68 C4.828,7.68 3.34,8.4 2.26,9.072 L1.492,7.728 C2.668,6.96 4.636,6.048 6.676,6.048 C9.868,6.048 11.404,7.944 11.404,10.848 L11.404,18 L9.796,18 L9.628,16.416 L9.556,16.416 C8.26,17.424 6.604,18.288 4.948,18.288 Z M5.476,16.704 C6.796,16.704 8.116,16.08 9.436,14.976 L9.436,11.904 C4.444,12.312 2.908,13.296 2.908,14.832 C2.908,16.152 4.132,16.704 5.476,16.704 Z M22.708,18.288 C20.428,18.288 18.388,17.448 16.972,16.464 L17.884,15.168 C19.228,16.128 20.788,16.752 22.948,16.752 C24.916,16.752 25.9,15.912 25.9,14.928 C25.9,14.04 25.42,13.416 22.252,12.768 C19.228,12.144 17.692,11.112 17.692,9.36 C17.692,7.488 19.348,6.048 22.54,6.048 C24.316,6.048 26.092,6.744 27.244,7.536 L26.284,8.808 C25.204,8.064 23.86,7.584 22.372,7.584 C20.38,7.584 19.684,8.376 19.684,9.264 C19.684,10.272 20.692,10.704 23.068,11.208 C26.956,12.048 27.892,13.032 27.892,14.808 C27.892,16.704 26.044,18.288 22.708,18.288 Z M40.948,18.288 C37.54,18.288 36.436,16.344 36.436,13.464 L36.436,7.944 L33.148,7.944 L33.148,6.456 L36.508,6.336 L36.772,2.592 L38.404,2.592 L38.404,6.336 L44.14,6.336 L44.14,7.944 L38.404,7.944 L38.404,13.488 C38.404,15.576 39.1,16.68 41.356,16.68 C42.46,16.68 43.324,16.464 44.164,16.152 L44.596,17.592 C43.54,17.976 42.412,18.288 40.948,18.288 Z M51.22,18 L51.22,6.336 L52.852,6.336 L53.02,9.096 L53.092,9.096 C54.316,7.224 56.14,6.048 58.3,6.048 C59.164,6.048 59.884,6.168 60.604,6.528 L60.148,8.232 C59.332,7.944 58.9,7.824 57.988,7.824 C56.236,7.824 54.58,8.736 53.188,11.16 L53.188,18 L51.22,18 Z M71.14,18.288 C68.068,18.288 65.38,16.056 65.38,12.192 C65.38,8.28 68.068,6.048 71.14,6.048 C74.212,6.048 76.9,8.28 76.9,12.192 C76.9,16.056 74.212,18.288 71.14,18.288 Z M71.14,16.656 C73.372,16.656 74.86,14.856 74.86,12.192 C74.86,9.504 73.372,7.68 71.14,7.68 C68.908,7.68 67.42,9.504 67.42,12.192 C67.42,14.856 68.908,16.656 71.14,16.656 Z M81.556,18 L81.556,6.336 L83.14,6.336 L83.308,7.872 L83.356,7.872 C83.956,6.792 84.676,6.048 86.02,6.048 C87.172,6.048 87.892,6.72 88.228,8.064 C88.9,6.816 89.62,6.048 90.964,6.048 C92.596,6.048 93.556,7.32 93.556,9.648 L93.556,18 L91.588,18 L91.588,9.792 C91.588,8.448 91.204,7.752 90.34,7.752 C89.524,7.752 89.092,8.352 88.468,9.552 L88.468,18 L86.644,18 L86.644,9.792 C86.644,8.448 86.308,7.752 85.444,7.752 C84.628,7.752 84.1,8.352 83.524,9.552 L83.524,18 L81.556,18 Z M99.532,23.016 C98.98,23.016 98.404,22.92 97.996,22.776 L98.404,21.216 C98.716,21.312 99.1,21.384 99.46,21.384 C101.092,21.384 102.076,20.328 102.652,18.888 L103.012,18.024 L97.564,6.336 L99.556,6.336 L102.412,12.792 C102.868,13.824 103.372,15.048 103.852,16.176 L103.948,16.176 C104.356,15.072 104.812,13.848 105.196,12.792 L107.74,6.336 L109.612,6.336 L104.476,18.96 C103.612,21.264 102.172,23.016 99.532,23.016 Z M120.916,18.288 C117.268,18.288 114.532,16.056 114.532,12.192 C114.532,8.28 117.508,6.048 121.036,6.048 C122.932,6.048 124.324,6.816 125.284,7.752 L124.3,9.024 C123.34,8.184 122.332,7.68 121.108,7.68 C118.42,7.68 116.572,9.504 116.572,12.192 C116.572,14.856 118.372,16.656 121.06,16.656 C122.5,16.656 123.7,16.008 124.66,15.192 L125.548,16.464 C124.252,17.616 122.644,18.288 120.916,18.288 Z M136.036,18.288 C132.964,18.288 130.276,16.056 130.276,12.192 C130.276,8.28 132.964,6.048 136.036,6.048 C139.108,6.048 141.796,8.28 141.796,12.192 C141.796,16.056 139.108,18.288 136.036,18.288 Z M136.036,16.656 C138.268,16.656 139.756,14.856 139.756,12.192 C139.756,9.504 138.268,7.68 136.036,7.68 C133.804,7.68 132.316,9.504 132.316,12.192 C132.316,14.856 133.804,16.656 136.036,16.656 Z M154.828,18.288 C152.356,18.288 150.988,16.848 150.988,14.088 L150.988,2.52 L146.836,2.52 L146.836,0.912 L152.956,0.912 L152.956,14.232 C152.956,15.936 153.868,16.656 155.26,16.656 C155.932,16.656 156.652,16.488 157.444,16.128 L157.948,17.592 C156.868,18.048 156.1,18.288 154.828,18.288 Z M168.484,18.288 C165.412,18.288 162.724,16.056 162.724,12.192 C162.724,8.28 165.412,6.048 168.484,6.048 C171.556,6.048 174.244,8.28 174.244,12.192 C174.244,16.056 171.556,18.288 168.484,18.288 Z M168.484,16.656 C170.716,16.656 172.204,14.856 172.204,12.192 C172.204,9.504 170.716,7.68 168.484,7.68 C166.252,7.68 164.764,9.504 164.764,12.192 C164.764,14.856 166.252,16.656 168.484,16.656 Z M184.612,23.376 C181.204,23.376 179.236,22.2 179.236,20.136 C179.236,19.2 179.908,18.264 181.156,17.544 L181.156,17.448 C180.532,17.112 179.956,16.512 179.956,15.528 C179.956,14.784 180.46,13.944 181.348,13.344 L181.348,13.248 C180.556,12.648 179.908,11.616 179.908,10.224 C179.908,7.68 182.02,6.048 184.492,6.048 C185.164,6.048 185.716,6.144 186.22,6.336 L191.044,6.336 L191.044,7.944 L188.02,7.944 C188.548,8.496 189.004,9.36 189.004,10.296 C189.004,12.792 187.012,14.304 184.492,14.304 C183.892,14.304 183.172,14.16 182.524,13.872 C181.948,14.232 181.612,14.664 181.612,15.216 C181.612,16.128 182.5,16.56 184.036,16.56 L186.652,16.56 C189.652,16.56 191.092,17.328 191.092,19.296 C191.092,21.48 188.572,23.376 184.612,23.376 Z M184.492,12.984 C185.98,12.984 187.18,11.904 187.18,10.224 C187.18,8.592 185.98,7.488 184.492,7.488 C183.028,7.488 181.804,8.592 181.804,10.224 C181.804,11.904 183.028,12.984 184.492,12.984 Z M184.756,21.936 C187.468,21.936 189.148,20.808 189.148,19.608 C189.148,18.504 188.26,18.192 186.484,18.192 L184.204,18.192 C183.532,18.192 182.932,18.144 182.428,18 C181.324,18.6 180.94,19.272 180.94,19.944 C180.94,21.168 182.26,21.936 184.756,21.936 Z M196.876,23.016 C196.324,23.016 195.748,22.92 195.34,22.776 L195.748,21.216 C196.06,21.312 196.444,21.384 196.804,21.384 C198.436,21.384 199.42,20.328 199.996,18.888 L200.356,18.024 L194.908,6.336 L196.9,6.336 L199.756,12.792 C200.212,13.824 200.716,15.048 201.196,16.176 L201.292,16.176 C201.7,15.072 202.156,13.848 202.54,12.792 L205.084,6.336 L206.956,6.336 L201.82,18.96 C200.956,21.264 199.516,23.016 196.876,23.016 Z" id="astromycology"></path>
        </g>
        <g id="plant-neurobiology-2" transform="translate(551.000000, 74.000000)" fill="#66666E">
            <path d="M0.716,22.92 L0.716,6.336 L2.348,6.336 L2.516,7.824 L2.588,7.824 C3.668,6.792 5.18,6.048 6.62,6.048 C9.764,6.048 11.444,8.376 11.444,12 C11.444,15.96 8.948,18.288 6.14,18.288 C5.06,18.288 3.692,17.736 2.66,16.776 L2.588,16.776 L2.684,18.984 L2.684,22.92 L0.716,22.92 Z M5.804,16.632 C7.892,16.632 9.404,14.88 9.404,12 C9.404,9.432 8.444,7.704 6.116,7.704 C5.084,7.704 3.884,8.256 2.684,9.456 L2.684,15.264 C3.788,16.248 5.012,16.632 5.804,16.632 Z M24.476,18.288 C22.004,18.288 20.636,16.848 20.636,14.088 L20.636,2.52 L16.484,2.52 L16.484,0.912 L22.604,0.912 L22.604,14.232 C22.604,15.936 23.516,16.656 24.908,16.656 C25.58,16.656 26.3,16.488 27.092,16.128 L27.596,17.592 C26.516,18.048 25.748,18.288 24.476,18.288 Z M36.836,18.288 C34.652,18.288 32.876,17.064 32.876,14.976 C32.876,12.36 35.3,11.088 41.324,10.608 C41.276,9.024 40.484,7.68 38.228,7.68 C36.716,7.68 35.228,8.4 34.148,9.072 L33.38,7.728 C34.556,6.96 36.524,6.048 38.564,6.048 C41.756,6.048 43.292,7.944 43.292,10.848 L43.292,18 L41.684,18 L41.516,16.416 L41.444,16.416 C40.148,17.424 38.492,18.288 36.836,18.288 Z M37.364,16.704 C38.684,16.704 40.004,16.08 41.324,14.976 L41.324,11.904 C36.332,12.312 34.796,13.296 34.796,14.832 C34.796,16.152 36.02,16.704 37.364,16.704 Z M49.388,18 L49.388,6.336 L51.02,6.336 L51.188,8.328 L51.284,8.328 C52.508,7.032 53.852,6.048 55.676,6.048 C58.436,6.048 59.708,7.68 59.708,10.752 L59.708,18 L57.74,18 L57.74,11.016 C57.74,8.808 56.972,7.752 55.052,7.752 C53.66,7.752 52.724,8.448 51.356,9.864 L51.356,18 L49.388,18 Z M72.836,18.288 C69.428,18.288 68.324,16.344 68.324,13.464 L68.324,7.944 L65.036,7.944 L65.036,6.456 L68.396,6.336 L68.66,2.592 L70.292,2.592 L70.292,6.336 L76.028,6.336 L76.028,7.944 L70.292,7.944 L70.292,13.488 C70.292,15.576 70.988,16.68 73.244,16.68 C74.348,16.68 75.212,16.464 76.052,16.152 L76.484,17.592 C75.428,17.976 74.3,18.288 72.836,18.288 Z M98.06,18 L98.06,6.336 L99.692,6.336 L99.86,8.328 L99.956,8.328 C101.18,7.032 102.524,6.048 104.348,6.048 C107.108,6.048 108.38,7.68 108.38,10.752 L108.38,18 L106.412,18 L106.412,11.016 C106.412,8.808 105.644,7.752 103.724,7.752 C102.332,7.752 101.396,8.448 100.028,9.864 L100.028,18 L98.06,18 Z M119.972,18.288 C116.468,18.288 113.684,16.032 113.684,12.144 C113.684,8.352 116.516,6.048 119.636,6.048 C122.996,6.048 124.964,8.232 124.964,11.52 C124.964,11.976 124.916,12.408 124.868,12.72 L115.676,12.72 C115.916,15.36 117.788,16.704 120.212,16.704 C121.604,16.704 122.708,16.272 123.764,15.6 L124.484,16.896 C123.332,17.664 121.844,18.288 119.972,18.288 Z M119.684,7.608 C117.764,7.608 116.084,8.88 115.724,11.184 L123.164,11.184 C122.996,8.784 121.676,7.608 119.684,7.608 Z M134.18,18.288 C131.396,18.288 130.124,16.656 130.124,13.584 L130.124,6.336 L132.116,6.336 L132.116,13.32 C132.116,15.528 132.86,16.584 134.804,16.584 C136.148,16.584 137.132,15.936 138.428,14.424 L138.428,6.336 L140.396,6.336 L140.396,18 L138.788,18 L138.62,15.96 L138.524,15.96 C137.348,17.328 135.98,18.288 134.18,18.288 Z M148.004,18 L148.004,6.336 L149.636,6.336 L149.804,9.096 L149.876,9.096 C151.1,7.224 152.924,6.048 155.084,6.048 C155.948,6.048 156.668,6.168 157.388,6.528 L156.932,8.232 C156.116,7.944 155.684,7.824 154.772,7.824 C153.02,7.824 151.364,8.736 149.972,11.16 L149.972,18 L148.004,18 Z M167.924,18.288 C164.852,18.288 162.164,16.056 162.164,12.192 C162.164,8.28 164.852,6.048 167.924,6.048 C170.996,6.048 173.684,8.28 173.684,12.192 C173.684,16.056 170.996,18.288 167.924,18.288 Z M167.924,16.656 C170.156,16.656 171.644,14.856 171.644,12.192 C171.644,9.504 170.156,7.68 167.924,7.68 C165.692,7.68 164.204,9.504 164.204,12.192 C164.204,14.856 165.692,16.656 167.924,16.656 Z M184.628,18.288 C183.5,18.288 182.108,17.688 181.004,16.704 L180.932,16.704 L180.764,18 L179.18,18 L179.18,0.912 L181.148,0.912 L181.148,5.568 L181.076,7.824 L181.148,7.824 C182.204,6.744 183.692,6.048 185.06,6.048 C188.204,6.048 189.908,8.376 189.908,11.976 C189.908,15.96 187.412,18.288 184.628,18.288 Z M184.316,16.632 C186.356,16.632 187.868,14.88 187.868,12 C187.868,9.432 186.908,7.704 184.58,7.704 C183.548,7.704 182.348,8.256 181.148,9.456 L181.148,15.264 C182.252,16.248 183.476,16.632 184.316,16.632 Z M200.756,18 L200.756,7.944 L195.332,7.944 L195.332,6.336 L202.724,6.336 L202.724,18 L200.756,18 Z M201.524,3.888 C200.636,3.888 199.94,3.288 199.94,2.352 C199.94,1.44 200.636,0.816 201.524,0.816 C202.412,0.816 203.108,1.44 203.108,2.352 C203.108,3.288 202.412,3.888 201.524,3.888 Z M216.596,18.288 C213.524,18.288 210.836,16.056 210.836,12.192 C210.836,8.28 213.524,6.048 216.596,6.048 C219.668,6.048 222.356,8.28 222.356,12.192 C222.356,16.056 219.668,18.288 216.596,18.288 Z M216.596,16.656 C218.828,16.656 220.316,14.856 220.316,12.192 C220.316,9.504 218.828,7.68 216.596,7.68 C214.364,7.68 212.876,9.504 212.876,12.192 C212.876,14.856 214.364,16.656 216.596,16.656 Z M235.388,18.288 C232.916,18.288 231.548,16.848 231.548,14.088 L231.548,2.52 L227.396,2.52 L227.396,0.912 L233.516,0.912 L233.516,14.232 C233.516,15.936 234.428,16.656 235.82,16.656 C236.492,16.656 237.212,16.488 238.004,16.128 L238.508,17.592 C237.428,18.048 236.66,18.288 235.388,18.288 Z M249.044,18.288 C245.972,18.288 243.284,16.056 243.284,12.192 C243.284,8.28 245.972,6.048 249.044,6.048 C252.116,6.048 254.804,8.28 254.804,12.192 C254.804,16.056 252.116,18.288 249.044,18.288 Z M249.044,16.656 C251.276,16.656 252.764,14.856 252.764,12.192 C252.764,9.504 251.276,7.68 249.044,7.68 C246.812,7.68 245.324,9.504 245.324,12.192 C245.324,14.856 246.812,16.656 249.044,16.656 Z M265.172,23.376 C261.764,23.376 259.796,22.2 259.796,20.136 C259.796,19.2 260.468,18.264 261.716,17.544 L261.716,17.448 C261.092,17.112 260.516,16.512 260.516,15.528 C260.516,14.784 261.02,13.944 261.908,13.344 L261.908,13.248 C261.116,12.648 260.468,11.616 260.468,10.224 C260.468,7.68 262.58,6.048 265.052,6.048 C265.724,6.048 266.276,6.144 266.78,6.336 L271.604,6.336 L271.604,7.944 L268.58,7.944 C269.108,8.496 269.564,9.36 269.564,10.296 C269.564,12.792 267.572,14.304 265.052,14.304 C264.452,14.304 263.732,14.16 263.084,13.872 C262.508,14.232 262.172,14.664 262.172,15.216 C262.172,16.128 263.06,16.56 264.596,16.56 L267.212,16.56 C270.212,16.56 271.652,17.328 271.652,19.296 C271.652,21.48 269.132,23.376 265.172,23.376 Z M265.052,12.984 C266.54,12.984 267.74,11.904 267.74,10.224 C267.74,8.592 266.54,7.488 265.052,7.488 C263.588,7.488 262.364,8.592 262.364,10.224 C262.364,11.904 263.588,12.984 265.052,12.984 Z M265.316,21.936 C268.028,21.936 269.708,20.808 269.708,19.608 C269.708,18.504 268.82,18.192 267.044,18.192 L264.764,18.192 C264.092,18.192 263.492,18.144 262.988,18 C261.884,18.6 261.5,19.272 261.5,19.944 C261.5,21.168 262.82,21.936 265.316,21.936 Z M277.436,23.016 C276.884,23.016 276.308,22.92 275.9,22.776 L276.308,21.216 C276.62,21.312 277.004,21.384 277.364,21.384 C278.996,21.384 279.98,20.328 280.556,18.888 L280.916,18.024 L275.468,6.336 L277.46,6.336 L280.316,12.792 C280.772,13.824 281.276,15.048 281.756,16.176 L281.852,16.176 C282.26,15.072 282.716,13.848 283.1,12.792 L285.644,6.336 L287.516,6.336 L282.38,18.96 C281.516,21.264 280.076,23.016 277.436,23.016 Z" id="plant-neurobiology"></path>
        </g>
        <g id="hive-mind-2" transform="translate(332.000000, 341.000000)" fill="#66666E">
            <path d="M0.724,18 L0.724,0.912 L2.692,0.912 L2.692,5.568 L2.572,8.328 L2.644,8.328 C3.844,7.032 5.188,6.048 7.012,6.048 C9.772,6.048 11.044,7.68 11.044,10.752 L11.044,18 L9.076,18 L9.076,11.016 C9.076,8.808 8.308,7.752 6.388,7.752 C4.996,7.752 4.06,8.448 2.692,9.864 L2.692,18 L0.724,18 Z M22.3,18 L22.3,7.944 L16.876,7.944 L16.876,6.336 L24.268,6.336 L24.268,18 L22.3,18 Z M23.068,3.888 C22.18,3.888 21.484,3.288 21.484,2.352 C21.484,1.44 22.18,0.816 23.068,0.816 C23.956,0.816 24.652,1.44 24.652,2.352 C24.652,3.288 23.956,3.888 23.068,3.888 Z M37.084,18 L32.164,6.336 L34.156,6.336 L36.844,12.96 C37.324,14.136 37.756,15.288 38.164,16.392 L38.26,16.392 C38.668,15.288 39.052,14.136 39.532,12.96 L42.22,6.336 L44.116,6.336 L39.292,18 L37.084,18 Z M55.084,18.288 C51.58,18.288 48.796,16.032 48.796,12.144 C48.796,8.352 51.628,6.048 54.748,6.048 C58.108,6.048 60.076,8.232 60.076,11.52 C60.076,11.976 60.028,12.408 59.98,12.72 L50.788,12.72 C51.028,15.36 52.9,16.704 55.324,16.704 C56.716,16.704 57.82,16.272 58.876,15.6 L59.596,16.896 C58.444,17.664 56.956,18.288 55.084,18.288 Z M54.796,7.608 C52.876,7.608 51.196,8.88 50.836,11.184 L58.276,11.184 C58.108,8.784 56.788,7.608 54.796,7.608 Z M81.004,18 L81.004,6.336 L82.588,6.336 L82.756,7.872 L82.804,7.872 C83.404,6.792 84.124,6.048 85.468,6.048 C86.62,6.048 87.34,6.72 87.676,8.064 C88.348,6.816 89.068,6.048 90.412,6.048 C92.044,6.048 93.004,7.32 93.004,9.648 L93.004,18 L91.036,18 L91.036,9.792 C91.036,8.448 90.652,7.752 89.788,7.752 C88.972,7.752 88.54,8.352 87.916,9.552 L87.916,18 L86.092,18 L86.092,9.792 C86.092,8.448 85.756,7.752 84.892,7.752 C84.076,7.752 83.548,8.352 82.972,9.552 L82.972,18 L81.004,18 Z M103.42,18 L103.42,7.944 L97.996,7.944 L97.996,6.336 L105.388,6.336 L105.388,18 L103.42,18 Z M104.188,3.888 C103.3,3.888 102.604,3.288 102.604,2.352 C102.604,1.44 103.3,0.816 104.188,0.816 C105.076,0.816 105.772,1.44 105.772,2.352 C105.772,3.288 105.076,3.888 104.188,3.888 Z M114.292,18 L114.292,6.336 L115.924,6.336 L116.092,8.328 L116.188,8.328 C117.412,7.032 118.756,6.048 120.58,6.048 C123.34,6.048 124.612,7.68 124.612,10.752 L124.612,18 L122.644,18 L122.644,11.016 C122.644,8.808 121.876,7.752 119.956,7.752 C118.564,7.752 117.628,8.448 116.26,9.864 L116.26,18 L114.292,18 Z M134.788,18.288 C131.74,18.288 129.724,16.08 129.724,12.192 C129.724,8.4 132.268,6.048 135.028,6.048 C136.42,6.048 137.5,6.6 138.508,7.56 L138.58,7.56 L138.484,5.4 L138.484,0.912 L140.452,0.912 L140.452,18 L138.82,18 L138.652,16.464 L138.58,16.464 C137.62,17.448 136.228,18.288 134.788,18.288 Z M135.196,16.632 C136.348,16.632 137.452,16.032 138.484,14.88 L138.484,9.072 C137.428,8.088 136.42,7.704 135.412,7.704 C133.396,7.704 131.764,9.504 131.764,12.168 C131.764,14.952 133.036,16.632 135.196,16.632 Z" id="hive-mind"></path>
        </g>
        <g id="biosemiotics-2" transform="translate(707.000000, 200.000000)" fill="#66666E">
            <path d="M5.836,18.288 C4.708,18.288 3.316,17.688 2.212,16.704 L2.14,16.704 L1.972,18 L0.388,18 L0.388,0.912 L2.356,0.912 L2.356,5.568 L2.284,7.824 L2.356,7.824 C3.412,6.744 4.9,6.048 6.268,6.048 C9.412,6.048 11.116,8.376 11.116,11.976 C11.116,15.96 8.62,18.288 5.836,18.288 Z M5.524,16.632 C7.564,16.632 9.076,14.88 9.076,12 C9.076,9.432 8.116,7.704 5.788,7.704 C4.756,7.704 3.556,8.256 2.356,9.456 L2.356,15.264 C3.46,16.248 4.684,16.632 5.524,16.632 Z M21.964,18 L21.964,7.944 L16.54,7.944 L16.54,6.336 L23.932,6.336 L23.932,18 L21.964,18 Z M22.732,3.888 C21.844,3.888 21.148,3.288 21.148,2.352 C21.148,1.44 21.844,0.816 22.732,0.816 C23.62,0.816 24.316,1.44 24.316,2.352 C24.316,3.288 23.62,3.888 22.732,3.888 Z M37.804,18.288 C34.732,18.288 32.044,16.056 32.044,12.192 C32.044,8.28 34.732,6.048 37.804,6.048 C40.876,6.048 43.564,8.28 43.564,12.192 C43.564,16.056 40.876,18.288 37.804,18.288 Z M37.804,16.656 C40.036,16.656 41.524,14.856 41.524,12.192 C41.524,9.504 40.036,7.68 37.804,7.68 C35.572,7.68 34.084,9.504 34.084,12.192 C34.084,14.856 35.572,16.656 37.804,16.656 Z M54.268,18.288 C51.988,18.288 49.948,17.448 48.532,16.464 L49.444,15.168 C50.788,16.128 52.348,16.752 54.508,16.752 C56.476,16.752 57.46,15.912 57.46,14.928 C57.46,14.04 56.98,13.416 53.812,12.768 C50.788,12.144 49.252,11.112 49.252,9.36 C49.252,7.488 50.908,6.048 54.1,6.048 C55.876,6.048 57.652,6.744 58.804,7.536 L57.844,8.808 C56.764,8.064 55.42,7.584 53.932,7.584 C51.94,7.584 51.244,8.376 51.244,9.264 C51.244,10.272 52.252,10.704 54.628,11.208 C58.516,12.048 59.452,13.032 59.452,14.808 C59.452,16.704 57.604,18.288 54.268,18.288 Z M70.972,18.288 C67.468,18.288 64.684,16.032 64.684,12.144 C64.684,8.352 67.516,6.048 70.636,6.048 C73.996,6.048 75.964,8.232 75.964,11.52 C75.964,11.976 75.916,12.408 75.868,12.72 L66.676,12.72 C66.916,15.36 68.788,16.704 71.212,16.704 C72.604,16.704 73.708,16.272 74.764,15.6 L75.484,16.896 C74.332,17.664 72.844,18.288 70.972,18.288 Z M70.684,7.608 C68.764,7.608 67.084,8.88 66.724,11.184 L74.164,11.184 C73.996,8.784 72.676,7.608 70.684,7.608 Z M80.668,18 L80.668,6.336 L82.252,6.336 L82.42,7.872 L82.468,7.872 C83.068,6.792 83.788,6.048 85.132,6.048 C86.284,6.048 87.004,6.72 87.34,8.064 C88.012,6.816 88.732,6.048 90.076,6.048 C91.708,6.048 92.668,7.32 92.668,9.648 L92.668,18 L90.7,18 L90.7,9.792 C90.7,8.448 90.316,7.752 89.452,7.752 C88.636,7.752 88.204,8.352 87.58,9.552 L87.58,18 L85.756,18 L85.756,9.792 C85.756,8.448 85.42,7.752 84.556,7.752 C83.74,7.752 83.212,8.352 82.636,9.552 L82.636,18 L80.668,18 Z M103.084,18 L103.084,7.944 L97.66,7.944 L97.66,6.336 L105.052,6.336 L105.052,18 L103.084,18 Z M103.852,3.888 C102.964,3.888 102.268,3.288 102.268,2.352 C102.268,1.44 102.964,0.816 103.852,0.816 C104.74,0.816 105.436,1.44 105.436,2.352 C105.436,3.288 104.74,3.888 103.852,3.888 Z M118.924,18.288 C115.852,18.288 113.164,16.056 113.164,12.192 C113.164,8.28 115.852,6.048 118.924,6.048 C121.996,6.048 124.684,8.28 124.684,12.192 C124.684,16.056 121.996,18.288 118.924,18.288 Z M118.924,16.656 C121.156,16.656 122.644,14.856 122.644,12.192 C122.644,9.504 121.156,7.68 118.924,7.68 C116.692,7.68 115.204,9.504 115.204,12.192 C115.204,14.856 116.692,16.656 118.924,16.656 Z M137.404,18.288 C133.996,18.288 132.892,16.344 132.892,13.464 L132.892,7.944 L129.604,7.944 L129.604,6.456 L132.964,6.336 L133.228,2.592 L134.86,2.592 L134.86,6.336 L140.596,6.336 L140.596,7.944 L134.86,7.944 L134.86,13.488 C134.86,15.576 135.556,16.68 137.812,16.68 C138.916,16.68 139.78,16.464 140.62,16.152 L141.052,17.592 C139.996,17.976 138.868,18.288 137.404,18.288 Z M151.756,18 L151.756,7.944 L146.332,7.944 L146.332,6.336 L153.724,6.336 L153.724,18 L151.756,18 Z M152.524,3.888 C151.636,3.888 150.94,3.288 150.94,2.352 C150.94,1.44 151.636,0.816 152.524,0.816 C153.412,0.816 154.108,1.44 154.108,2.352 C154.108,3.288 153.412,3.888 152.524,3.888 Z M168.7,18.288 C165.052,18.288 162.316,16.056 162.316,12.192 C162.316,8.28 165.292,6.048 168.82,6.048 C170.716,6.048 172.108,6.816 173.068,7.752 L172.084,9.024 C171.124,8.184 170.116,7.68 168.892,7.68 C166.204,7.68 164.356,9.504 164.356,12.192 C164.356,14.856 166.156,16.656 168.844,16.656 C170.284,16.656 171.484,16.008 172.444,15.192 L173.332,16.464 C172.036,17.616 170.428,18.288 168.7,18.288 Z M184.06,18.288 C181.78,18.288 179.74,17.448 178.324,16.464 L179.236,15.168 C180.58,16.128 182.14,16.752 184.3,16.752 C186.268,16.752 187.252,15.912 187.252,14.928 C187.252,14.04 186.772,13.416 183.604,12.768 C180.58,12.144 179.044,11.112 179.044,9.36 C179.044,7.488 180.7,6.048 183.892,6.048 C185.668,6.048 187.444,6.744 188.596,7.536 L187.636,8.808 C186.556,8.064 185.212,7.584 183.724,7.584 C181.732,7.584 181.036,8.376 181.036,9.264 C181.036,10.272 182.044,10.704 184.42,11.208 C188.308,12.048 189.244,13.032 189.244,14.808 C189.244,16.704 187.396,18.288 184.06,18.288 Z" id="biosemiotics"></path>
        </g>
    </g>
</svg>