<svg id="Light" xmlns="http://www.w3.org/2000/svg" viewBox="0 0 24 24"><defs><style>.cls-1{fill:none;stroke:#000;stroke-linecap:round;stroke-linejoin:round;}</style></defs><title>weather-sun</title><path class="cls-1" d="M19,12a7,7,0,0,0-7-7h0a7,7,0,0,0-7,7H5a7,7,0,0,0,7,7h0a7,7,0,0,0,7-7Z"/><line class="cls-1" x1="12" y1="21" x2="12" y2="23"/><line class="cls-1" x1="21" y1="12" x2="23" y2="12"/><line class="cls-1" x1="12" y1="3" x2="12" y2="1"/><line class="cls-1" x1="3" y1="12" x2="1" y2="12"/><line class="cls-1" x1="5.637" y1="18.364" x2="4.222" y2="19.779"/><line class="cls-1" x1="18.364" y1="18.364" x2="19.778" y2="19.778"/><line class="cls-1" x1="18.365" y1="5.637" x2="19.779" y2="4.223"/><line class="cls-1" x1="5.636" y1="5.637" x2="4.222" y2="4.223"/></svg>