<svg xmlns="http://www.w3.org/2000/svg" version="1.1" style="font-family: 'Helvetica Neue', Helvetica, Arial, sans-serif; font-size: 18px; background-color: white; text-rendering: optimizeLegibility; -webkit-font-smoothing: antialiased;" width="850" height="600"><g class="ChartTab"><g class="HeaderView"><g opacity="0.8" transform="translate(778, 15) scale(0.27)"><a xmlns:xlink="http://www.w3.org/1999/xlink" xlink:href="https://ourworldindata.org" target="_blank"><g><rect x="0" y="0" fill="#1B2543" width="211.2" height="130.1"/><rect x="0" y="112.2" fill="#E63912" width="211.2" height="17.9"/><g><rect x="1.2" y="12.3" fill="none" width="210.2" height="99.2"/><path fill="#FFFFFF" d="M37.8,32.2c0,12.7-7.7,19.4-17.1,19.4c-9.7,0-16.6-7.5-16.6-18.7c0-11.7,7.3-19.3,17.1-19.3 C31.3,13.7,37.8,21.3,37.8,32.2z M9.2,32.8c0,7.9,4.3,14.9,11.8,14.9c7.5,0,11.8-6.9,11.8-15.3c0-7.3-3.8-14.9-11.8-14.9 C13.1,17.5,9.2,24.8,9.2,32.8z"/><path fill="#FFFFFF" d="M62.7,43.8c0,2.7,0.1,5.1,0.2,7.2h-4.3l-0.3-4.3h-0.1c-1.3,2.1-4,4.9-8.8,4.9c-4.2,0-9.1-2.3-9.1-11.6 V24.6h4.8v14.6c0,5,1.5,8.4,5.9,8.4c3.2,0,5.5-2.2,6.3-4.4c0.3-0.7,0.4-1.6,0.4-2.5V24.6h4.8V43.8z"/><path fill="#FFFFFF" d="M67.3,32.8c0-3.1-0.1-5.8-0.2-8.2h4.2l0.2,5.2h0.2c1.2-3.5,4.1-5.8,7.3-5.8c0.5,0,0.9,0.1,1.4,0.2v4.5 c-0.5-0.1-1-0.2-1.6-0.2c-3.4,0-5.8,2.6-6.5,6.2c-0.1,0.7-0.2,1.4-0.2,2.2V51h-4.8V32.8z"/><path fill="#FFFFFF" d="M95.4,51l-9.4-36.8h5l4.4,18.6c1.1,4.6,2.1,9.2,2.7,12.7h0.1c0.6-3.7,1.8-8,3-12.8l4.9-18.5h5l4.5,18.7 c1,4.4,2,8.7,2.6,12.6h0.1c0.8-4,1.8-8.1,3-12.7l4.9-18.5h4.9L120.6,51h-5L111,31.9c-1.1-4.7-1.9-8.3-2.4-12h-0.1 c-0.7,3.7-1.5,7.3-2.8,12L100.4,51H95.4z"/><path fill="#FFFFFF" d="M154.9,37.6c0,9.8-6.8,14-13.2,14c-7.2,0-12.7-5.2-12.7-13.6c0-8.8,5.8-14,13.1-14 C149.8,24,154.9,29.5,154.9,37.6z M133.9,37.9c0,5.8,3.3,10.1,8,10.1c4.6,0,8-4.3,8-10.3c0-4.5-2.2-10.1-7.9-10.1 C136.3,27.6,133.9,32.8,133.9,37.9z"/><path fill="#FFFFFF" d="M158.2,32.8c0-3.1-0.1-5.8-0.2-8.2h4.2l0.2,5.2h0.2c1.2-3.5,4.1-5.8,7.3-5.8c0.5,0,0.9,0.1,1.4,0.2v4.5 c-0.5-0.1-1-0.2-1.6-0.2c-3.4,0-5.8,2.6-6.5,6.2c-0.1,0.7-0.2,1.4-0.2,2.2V51h-4.8V32.8z"/><path fill="#FFFFFF" d="M173.5,12.3h4.8V51h-4.8V12.3z"/><path fill="#FFFFFF" d="M206.5,12.3v31.9c0,2.3,0.1,5,0.2,6.8h-4.3l-0.2-4.6H202c-1.5,2.9-4.7,5.2-9,5.2 c-6.4,0-11.3-5.4-11.3-13.4c-0.1-8.8,5.4-14.2,11.9-14.2c4,0,6.8,1.9,8,4h0.1V12.3H206.5z M201.7,35.4c0-0.6-0.1-1.4-0.2-2 c-0.7-3.1-3.3-5.6-6.9-5.6c-5,0-7.9,4.4-7.9,10.2c0,5.3,2.6,9.8,7.8,9.8c3.2,0,6.2-2.1,7.1-5.7c0.2-0.7,0.2-1.3,0.2-2.1V35.4z"/><path fill="#FFFFFF" d="M42.8,64c0.1,1.6-1.1,2.9-3.1,2.9c-1.7,0-2.9-1.3-2.9-2.9c0-1.7,1.3-3,3-3C41.7,61,42.8,62.3,42.8,64z M37.4,97.8V71.4h4.8v26.4H37.4z"/><path fill="#FFFFFF" d="M47.5,78.6c0-2.7-0.1-5-0.2-7.1h4.3l0.3,4.4h0.1c1.3-2.5,4.4-5,8.8-5c3.7,0,9.4,2.2,9.4,11.2v15.8h-4.8 V82.6c0-4.3-1.6-7.8-6.1-7.8c-3.2,0-5.6,2.2-6.5,4.9c-0.2,0.6-0.3,1.4-0.3,2.2v15.9h-4.8V78.6z"/><path fill="#FFFFFF" d="M84,61.6c2.9-0.4,6.3-0.8,10.1-0.8c6.8,0,11.7,1.6,14.9,4.6c3.3,3,5.2,7.3,5.2,13.2c0,6-1.9,10.9-5.3,14.3 c-3.4,3.4-9.1,5.3-16.3,5.3c-3.4,0-6.2-0.2-8.6-0.4V61.6z M88.8,94.1c1.2,0.2,3,0.3,4.8,0.3c10.2,0,15.7-5.7,15.7-15.6 c0.1-8.7-4.9-14.2-14.9-14.2c-2.5,0-4.3,0.2-5.6,0.5V94.1z"/><path fill="#FFFFFF" d="M132.1,97.8l-0.4-3.3h-0.2c-1.5,2.1-4.3,3.9-8.1,3.9c-5.4,0-8.1-3.8-8.1-7.6c0-6.4,5.7-9.9,15.9-9.8v-0.5 c0-2.2-0.6-6.1-6-6.1c-2.5,0-5,0.8-6.9,2l-1.1-3.2c2.2-1.4,5.4-2.3,8.7-2.3c8.1,0,10.1,5.5,10.1,10.8v9.9c0,2.3,0.1,4.5,0.4,6.3 H132.1z M131.4,84.4c-5.3-0.1-11.2,0.8-11.2,5.9c0,3.1,2.1,4.6,4.5,4.6c3.4,0,5.6-2.2,6.4-4.4c0.2-0.5,0.3-1,0.3-1.5V84.4z"/><path fill="#FFFFFF" d="M146.6,63.9v7.6h6.9v3.7h-6.9v14.2c0,3.3,0.9,5.1,3.6,5.1c1.3,0,2.2-0.2,2.8-0.3l0.2,3.6 c-0.9,0.4-2.4,0.7-4.3,0.7c-2.2,0-4-0.7-5.2-2c-1.4-1.4-1.9-3.8-1.9-6.9V75.1h-4.1v-3.7h4.1v-6.3L146.6,63.9z"/><path fill="#FFFFFF" d="M171.4,97.8l-0.4-3.3h-0.2c-1.5,2.1-4.3,3.9-8.1,3.9c-5.4,0-8.1-3.8-8.1-7.6c0-6.4,5.7-9.9,15.9-9.8v-0.5 c0-2.2-0.6-6.1-6-6.1c-2.5,0-5,0.8-6.9,2l-1.1-3.2c2.2-1.4,5.4-2.3,8.7-2.3c8.1,0,10.1,5.5,10.1,10.8v9.9c0,2.3,0.1,4.5,0.4,6.3 H171.4z M170.7,84.4c-5.3-0.1-11.2,0.8-11.2,5.9c0,3.1,2.1,4.6,4.5,4.6c3.4,0,5.6-2.2,6.4-4.4c0.2-0.5,0.3-1,0.3-1.5V84.4z"/></g></g></a></g><a href="https://ourworldindata.org/grapher/military-expenditure-by-country-in-thousands-of-2000-us-dollars" target="_blank"><text font-size="25.20" x="15.0" y="35.2" fill="#555"><tspan x="15" y="35.160000000000004">Military expenditure by country</tspan></text></a><text font-size="14.40" x="15.0" y="53.7" fill="#666"><tspan x="15" y="53.72">Adjusted for inflation and expressed in US dollars in prices of 2000.</tspan></text></g><g class="LineChart"><defs><clipPath id="boundsClip-2"><rect x="92.296" y="0" width="830" height="959.8"></rect></clipPath></defs><g class="AxisBoxView"><g class="HorizontalAxis"><text x="102.3" y="556.5" fill="#666" text-anchor="middle" font-size="16.2">1914</text><text x="270.4" y="556.5" fill="#666" text-anchor="middle" font-size="16.2">1940</text><text x="399.7" y="556.5" fill="#666" text-anchor="middle" font-size="16.2">1960</text><text x="529" y="556.5" fill="#666" text-anchor="middle" font-size="16.2">1980</text><text x="658.3" y="556.5" fill="#666" text-anchor="middle" font-size="16.2">2000</text><text x="703.6" y="556.5" fill="#666" text-anchor="middle" font-size="16.2">2007</text></g><g class="VerticalAxis"><text x="97.30" y="535.3" fill="#666" dominant-baseline="middle" text-anchor="end" font-size="16.2">$0</text><text x="97.30" y="471.3" fill="#666" dominant-baseline="middle" text-anchor="end" font-size="16.2">$100 billion</text><text x="97.30" y="407.2" fill="#666" dominant-baseline="middle" text-anchor="end" font-size="16.2">$200 billion</text><text x="97.30" y="343.2" fill="#666" dominant-baseline="middle" text-anchor="end" font-size="16.2">$300 billion</text><text x="97.30" y="279.1" fill="#666" dominant-baseline="middle" text-anchor="end" font-size="16.2">$400 billion</text><text x="97.30" y="215.1" fill="#666" dominant-baseline="middle" text-anchor="end" font-size="16.2">$500 billion</text><text x="97.30" y="151" fill="#666" dominant-baseline="middle" text-anchor="end" font-size="16.2">$600 billion</text><text x="97.30" y="87" fill="#666" dominant-baseline="middle" text-anchor="end" font-size="16.2">$700 billion</text></g><g class="AxisGridLines"><line x1="102.30" y1="535.3" x2="703.61" y2="535.3" stroke="#ccc"></line><line x1="102.30" y1="471.3" x2="703.61" y2="471.3" stroke="#ddd" stroke-dasharray="3,2"></line><line x1="102.30" y1="407.2" x2="703.61" y2="407.2" stroke="#ddd" stroke-dasharray="3,2"></line><line x1="102.30" y1="343.2" x2="703.61" y2="343.2" stroke="#ddd" stroke-dasharray="3,2"></line><line x1="102.30" y1="279.1" x2="703.61" y2="279.1" stroke="#ddd" stroke-dasharray="3,2"></line><line x1="102.30" y1="215.1" x2="703.61" y2="215.1" stroke="#ddd" stroke-dasharray="3,2"></line><line x1="102.30" y1="151" x2="703.61" y2="151" stroke="#ddd" stroke-dasharray="3,2"></line><line x1="102.30" y1="87" x2="703.61" y2="87" stroke="#ddd" stroke-dasharray="3,2"></line></g></g><g clip-path="url(#boundsClip-2)"><g class="HeightedLegend clickable"><g class="legendMark"><g class="indicator"><line x1="708.61" y1="517.9" x2="729.6814285714286" y2="517.9" stroke="#666" stroke-width="0.5"></line><line x1="729.6814285714286" y1="517.9" x2="729.6814285714286" y2="517.9" stroke="#666" stroke-width="0.5"></line><line x1="729.6814285714286" y1="517.9" x2="733.61" y2="517.9" stroke="#666" stroke-width="0.5"></line></g><rect x="703.61" y="511.15" width="76.31" height="13.5" fill="#fff" opacity="0"></rect><text font-size="13.50" x="738.6" y="521.9" fill="#3360a9"><tspan x="738.61" y="521.9499999999999">Russia</tspan></text></g><g class="legendMark"><g class="indicator"><line x1="708.61" y1="515" x2="726.8242857142857" y2="515" stroke="#666" stroke-width="0.5"></line><line x1="726.8242857142857" y1="515" x2="726.8242857142857" y2="502.4" stroke="#666" stroke-width="0.5"></line><line x1="726.8242857142857" y1="502.4" x2="733.61" y2="502.4" stroke="#666" stroke-width="0.5"></line></g><rect x="703.61" y="495.65" width="59.84" height="13.5" fill="#fff" opacity="0"></rect><text font-size="13.50" x="738.6" y="506.4" fill="#5CACEE"><tspan x="738.61" y="506.45">Italy</tspan></text></g><g class="legendMark"><g class="indicator"><line x1="708.61" y1="513.2" x2="723.9671428571429" y2="513.2" stroke="#666" stroke-width="0.5"></line><line x1="723.9671428571429" y1="513.2" x2="723.9671428571429" y2="486.9" stroke="#666" stroke-width="0.5"></line><line x1="723.9671428571429" y1="486.9" x2="733.61" y2="486.9" stroke="#666" stroke-width="0.5"></line></g><rect x="703.61" y="480.15" width="71.99000000000001" height="13.5" fill="#fff" opacity="0"></rect><text font-size="13.50" x="738.6" y="490.9" fill="#34983f"><tspan x="738.61" y="490.95">Japan</tspan></text></g><g class="legendMark"><g class="indicator"><line x1="708.61" y1="512.6" x2="721.11" y2="512.6" stroke="#666" stroke-width="0.5"></line><line x1="721.11" y1="512.6" x2="721.11" y2="471.4" stroke="#666" stroke-width="0.5"></line><line x1="721.11" y1="471.4" x2="733.61" y2="471.4" stroke="#666" stroke-width="0.5"></line></g><rect x="703.61" y="464.65" width="90.62" height="13.5" fill="#fff" opacity="0"></rect><text font-size="13.50" x="738.6" y="475.4" fill="#43CD80"><tspan x="738.61" y="475.45">Germany</tspan></text></g><g class="legendMark"><g class="indicator"><line x1="708.61" y1="510.4" x2="718.2528571428571" y2="510.4" stroke="#666" stroke-width="0.5"></line><line x1="718.2528571428571" y1="510.4" x2="718.2528571428571" y2="455.9" stroke="#666" stroke-width="0.5"></line><line x1="718.2528571428571" y1="455.9" x2="733.61" y2="455.9" stroke="#666" stroke-width="0.5"></line></g><rect x="703.61" y="449.15" width="70.37" height="13.5" fill="#fff" opacity="0"></rect><text font-size="13.50" x="738.6" y="459.9" fill="#a652ba"><tspan x="738.61" y="459.95">China</tspan></text></g><g class="legendMark"><g class="indicator"><line x1="708.61" y1="502.6" x2="715.3957142857143" y2="502.6" stroke="#666" stroke-width="0.5"></line><line x1="715.3957142857143" y1="502.6" x2="715.3957142857143" y2="440.4" stroke="#666" stroke-width="0.5"></line><line x1="715.3957142857143" y1="440.4" x2="733.61" y2="440.4" stroke="#666" stroke-width="0.5"></line></g><rect x="703.61" y="433.65" width="77.12" height="13.5" fill="#fff" opacity="0"></rect><text font-size="13.50" x="738.6" y="444.4" fill="#FFC125"><tspan x="738.61" y="444.45">France</tspan></text></g><g class="legendMark"><g class="indicator"><line x1="708.61" y1="501.2" x2="712.5385714285715" y2="501.2" stroke="#666" stroke-width="0.5"></line><line x1="712.5385714285715" y1="501.2" x2="712.5385714285715" y2="424.9" stroke="#666" stroke-width="0.5"></line><line x1="712.5385714285715" y1="424.9" x2="733.61" y2="424.9" stroke="#666" stroke-width="0.5"></line></g><rect x="703.61" y="418.15" width="131.39" height="13.5" fill="#fff" opacity="0"></rect><text font-size="13.50" x="738.6" y="428.9" fill="#B0171F"><tspan x="738.61" y="428.95">United Kingdom</tspan></text></g><g class="legendMark"><g class="indicator"><line x1="708.61" y1="237.6" x2="721.11" y2="237.6" stroke="#666" stroke-width="0.5"></line><line x1="721.11" y1="237.6" x2="721.11" y2="237.6" stroke="#666" stroke-width="0.5"></line><line x1="721.11" y1="237.6" x2="733.61" y2="237.6" stroke="#666" stroke-width="0.5"></line></g><rect x="703.61" y="230.85" width="116.405" height="13.5" fill="#fff" opacity="0"></rect><text font-size="13.50" x="738.6" y="241.7" fill="#8A2BE2"><tspan x="738.61" y="241.65">United States</tspan></text></g></g><g class="Lines"><rect x="102" y="77" width="601" height="459" fill="rgba(255,255,255,0)" opacity="0"></rect><g class="key-China_0"><path stroke="#a652ba" stroke-linecap="round" d="M102 535L115 535L128 534L135 534L173 534L186 535L193 535L199 535L206 535L212 535L219 535L225 535L232 534L238 534L245 534L251 533L258 535L264 534L270 534L277 534L283 535L290 534L296 534L303 534L309 532L316 534L322 535L329 528L335 526L342 524L348 526L355 527L361 527L367 527L374 517L380 516L387 517L393 515L400 515L406 512L413 508L419 504L426 499L432 497L439 492L445 492L451 490L458 486L464 481L471 488L477 488L484 487L490 486L497 488L503 485L510 487L516 487L523 497L529 502L536 502L542 502L548 502L555 513L561 530L568 530L574 530L581 530L587 530L594 531L600 521L607 517L613 515L620 515L626 512L633 511L639 511L645 510L652 509L658 508L665 507L671 493L678 490L684 484L691 518L697 516L704 510" fill="none" stroke-width="1.5"></path></g><g class="key-Japan_0"><path stroke="#34983f" stroke-linecap="round" d="M102 534L109 534L115 534L122 534L128 534L135 533L141 533L148 533L154 534L161 534L167 534L173 534L180 534L186 534L193 534L199 534L206 534L212 534L219 534L225 534L232 533L238 533L245 534L251 529L258 524L264 524L270 523L277 518L283 511L290 498L296 445L303 515L348 534L355 534L361 534L367 534L374 534L380 534L387 534L393 534L400 534L406 534L413 534L419 533L426 533L432 533L439 533L445 533L451 532L458 532L464 532L471 530L477 530L484 529L490 528L497 528L503 527L510 527L516 525L523 522L529 524L536 523L542 524L548 524L555 523L561 522L568 517L574 513L581 511L587 511L594 513L600 511L607 507L613 505L620 502L626 500L633 504L639 508L645 510L652 509L658 506L665 511L671 511L678 509L684 509L691 510L697 513L704 513" fill="none" stroke-width="1.5"></path></g><g class="key-United-States_0"><path stroke="#8A2BE2" stroke-linecap="round" d="M102 533L109 533L115 533L122 531L128 500L135 480L141 528L148 530L154 531L161 532L167 532L173 532L180 532L186 532L193 532L199 532L206 532L212 531L219 531L225 531L232 530L238 530L245 529L251 529L258 528L264 529L270 525L277 497L283 390L290 149L296 80L303 77L309 332L316 477L322 493L329 483L335 480L342 416L348 368L355 364L361 389L367 399L374 399L380 395L387 395L393 394L400 399L406 393L413 382L419 384L426 389L432 390L439 351L445 335L451 330L458 338L464 356L471 371L477 372L484 379L490 378L497 383L503 391L510 385L516 383L523 378L529 365L536 352L542 336L548 323L555 311L561 311L568 297L574 295L581 297L587 295L594 308L600 336L607 322L613 319L620 327L626 342L633 346L639 350L645 349L652 344L658 341L665 333L671 320L678 291L684 267L691 253L697 247L704 238" fill="none" stroke-width="1.5"></path></g><g class="key-Russia_0"><path stroke="#3360a9" stroke-linecap="round" d="M102 528L109 498L115 504L122 511L128 534L135 528L141 530L148 528L154 526L161 531L167 531L173 528L180 526L186 524L193 523L199 521L206 516L212 514L219 520L225 518L232 512L238 499L245 516L251 514L258 500L264 496L270 496L277 494L283 494L290 493L296 493L303 492L309 496L316 488L322 485L329 481L335 476L342 464L348 459L355 447L361 439L367 436L374 448L380 448L387 442L393 430L400 424L406 406L413 389L419 399L426 401L432 406L439 404L445 398L451 376L458 370L464 358L471 354L477 349L484 343L490 336L497 321L503 317L510 313L516 308L523 303L529 298L536 296L542 294L548 291L555 286L561 283L568 277L574 270L581 266L587 438L594 434L600 434L607 500L613 514L620 467L626 478L633 485L639 492L645 497L652 498L658 502L665 495L671 504L678 496L684 500L691 525L697 522L704 518" fill="none" stroke-width="1.5"></path></g><g class="key-Italy_0"><path stroke="#5CACEE" stroke-linecap="round" d="M102 535L109 534L115 534L122 534L128 534L135 534L141 534L148 533L154 533L161 534L167 534L173 535L180 534L186 534L193 534L199 534L206 534L212 534L219 533L225 533L232 532L238 532L245 528L251 528L258 531L264 531L270 531L277 532L283 533L290 533L296 534L303 534L309 534L316 534L322 534L329 533L335 533L342 533L348 532L355 533L361 532L367 532L374 532L380 532L387 532L393 532L400 532L406 532L413 531L419 531L426 530L432 530L439 529L445 530L451 530L458 530L464 530L471 529L477 528L484 527L490 527L497 527L503 528L510 528L516 527L523 525L529 524L536 527L542 526L548 526L555 527L561 527L568 527L574 524L581 522L587 522L594 520L600 520L607 521L613 520L620 524L626 522L633 519L639 520L645 519L652 521L658 522L665 522L671 520L678 517L684 515L691 516L697 517L704 515" fill="none" stroke-width="1.5"></path></g><g class="key-Germany_0"><path stroke="#43CD80" stroke-linecap="round" d="M102 520L109 494L115 499L122 493L128 491L135 535L141 535L148 535L154 535L161 531L167 535L173 535L180 535L186 534L193 534L199 534L206 534L212 534L219 534L225 532L232 531L238 525L245 520L251 515L258 487L264 457L270 399L277 361L283 329L290 295L296 270L303 481L594 506L600 511L607 511L613 509L620 510L626 507L633 508L639 513L645 513L652 515L658 517L665 519L671 517L678 514L684 513L691 514L697 514L704 513" fill="none" stroke-width="1.5"></path></g><g class="key-France_0"><path stroke="#FFC125" stroke-linecap="round" d="M102 525L109 506L115 502L122 501L128 496L135 532L141 534L148 534L154 533L161 533L167 534L173 534L180 534L186 533L193 533L199 533L206 533L212 532L219 532L225 532L232 531L238 530L245 529L251 530L258 529L264 529L270 499L277 532L283 531L296 529L303 529L309 530L316 528L322 532L329 531L335 530L342 528L348 525L355 523L361 524L367 525L374 523L380 524L387 524L393 524L400 524L406 523L413 522L419 522L426 521L432 521L439 520L445 520L451 520L458 521L464 522L471 522L477 520L484 516L490 517L497 514L503 514L510 513L516 509L523 506L529 504L536 510L542 512L548 514L555 516L561 520L568 514L574 509L581 509L587 512L594 508L600 507L607 509L613 508L620 503L626 502L633 503L639 507L645 508L652 511L658 514L665 515L671 513L678 507L684 504L691 505L697 505L704 503" fill="none" stroke-width="1.5"></path></g><g class="key-United-Kingdom_0"><path stroke="#B0171F" stroke-linecap="round" d="M102 521L109 497L115 490L122 490L128 494L135 532L141 529L148 531L154 532L161 532L167 532L173 532L180 532L186 532L193 532L199 533L206 533L212 532L219 533L225 533L232 532L238 531L245 530L251 528L258 523L264 484L270 471L277 467L283 460L290 453L296 450L303 449L309 455L316 508L322 522L329 523L335 526L342 524L348 520L355 519L361 520L367 521L374 521L380 522L387 522L393 522L400 521L406 521L413 520L419 520L426 519L432 519L439 519L445 519L451 521L458 522L464 522L471 520L477 518L484 518L490 518L497 516L503 518L510 518L516 515L523 511L529 504L536 508L542 511L548 511L555 513L561 513L568 511L574 508L581 508L587 510L594 505L600 505L607 504L613 511L620 510L626 512L633 511L639 511L645 510L652 512L658 513L665 514L671 512L678 509L684 506L691 503L697 502L704 501" fill="none" stroke-width="1.5"></path></g></g></g></g><g style="fill: #777;" class="SourcesFooter"><g style="fill: #777;" class="clickable"><text font-size="12.60" x="15.0" y="581.6"><tspan x="15" y="581.58">Source: Correlates of War: National Material Capabilities (v4.0) + Measuring Worth</tspan></text></g><text font-size="12.60" x="546.6" y="581.6"><tspan x="546.586" y="581.58"><a target='_blank' style='fill: #777;' href='https://ourworldindata.org/military-spending/'>OurWorldInData.org/military-spending/</a> • <a style="fill: #777;" class="cclogo" href="http://creativecommons.org/licenses/by-sa/4.0/deed.en_US" target="_blank">CC BY-SA</a></tspan></text></g></g></svg>